# xmcd
#
# Track frame offsets: 
#        150
#        12240
#        33463
#        45238
#        55138
#        62638
#        69538
#        79513
#        90163
#        105988
#        117088
#
# Disc length: 1848 seconds
#
# Revision: 0
# Processed by: cddbd v1.5.2PL0 Copyright (c) Steve Scherf et al.
# Submitted via: ExactAudioCopyFreeDBPlugin 1.0
#
DISCID=7607360b
DTITLE=Cary Tate - Blues From The Heart
DYEAR=1976
DGENRE=Blues
TTITLE0=Blues All In My Bread
TTITLE1=Catfish Blues
TTITLE2=Coal Black Mare
TTITLE3=Bumble Bee Blues
TTITLE4=What's That Smells Like Gravy
TTITLE5=What's That Smells Like Gravy No2
TTITLE6=The Honeydripper
TTITLE7=Moaning
TTITLE8=Bluebird Blues
TTITLE9=How Many More Years
TTITLE10=I'm Going Down Brownsville
EXTD=
EXTT0=
EXTT1=
EXTT2=
EXTT3=
EXTT4=
EXTT5=
EXTT6=
EXTT7=
EXTT8=
EXTT9=
EXTT10=
PLAYORDER=
